<svg version="1.1" xmlns="http://www.w3.org/2000/svg" viewBox="-241.66399688720702 -4791.04028930664 8637.4400390625 5564.160333251953"><desc>Created with Snap</desc><defs></defs><g><g transform="matrix(100.44,0,0,100.44,2470.0159,-4483.8403)"><g display="none"><rect x="-69.333" y="-18.667" display="inline" fill="#e0aaff" width="473.333" height="236" style=""></rect></g><g display="none"><g display="inline"><g><polygon fill="#e0aaff" points="32,15.976 15.976,32 0,16.024    " style=""></polygon></g><g><polygon points="23.347,15.989 15.989,23.347 8.653,16.011    " fill="#e0aaff" style=""></polygon></g><g><polygon fill="#e0aaff" points="0,16.024 16.024,0 32,15.976    " style=""></polygon></g><g><polygon fill="#e0aaff" points="8.653,16.011 16.011,8.653 23.347,15.989    " style=""></polygon></g></g></g><g display="none"><g display="inline"><path fill="#e0aaff" d="M16,1c8.271,0,15,6.729,15,15s-6.729,15-15,15S1,24.271,1,16S7.729,1,16,1 M16,0C7.163,0,0,7.163,0,16    s7.163,16,16,16s16-7.163,16-16S24.837,0,16,0L16,0z" style=""></path></g><g display="inline"><path fill="#e0aaff" d="M13.034,6.153l2.259,2.259L16,9.119l0.707-0.707l2.259-2.259l0.744,0.744l-2.259,2.259l-0.707,0.707    l0.707,0.707l2.259,2.259l-0.744,0.744l-2.259-2.259L16,10.607l-0.707,0.707l-2.259,2.259l-0.744-0.744l2.259-2.259l0.707-0.707    l-0.707-0.707L12.29,6.897L13.034,6.153 M18.966,4.738L16,7.705l-2.966-2.966l-2.158,2.158l2.966,2.966l-2.966,2.966l2.158,2.158    L16,12.021l2.966,2.966l2.158-2.158l-2.966-2.966l2.966-2.966L18.966,4.738L18.966,4.738z" style=""></path></g><g display="inline"><path fill="#e0aaff" d="M13.034,18.427l2.259,2.259L16,21.393l0.707-0.707l2.259-2.259l0.744,0.744l-2.259,2.259l-0.707,0.707    l0.707,0.707l2.259,2.259l-0.744,0.744l-2.259-2.259L16,22.881l-0.707,0.707l-2.259,2.259l-0.744-0.744l2.259-2.259l0.707-0.707    l-0.707-0.707l-2.259-2.259L13.034,18.427 M18.966,17.013L16,19.979l-2.966-2.966l-2.158,2.158l2.966,2.966l-2.966,2.966    l2.158,2.158L16,24.295l2.966,2.966l2.158-2.158l-2.966-2.966l2.966-2.966L18.966,17.013L18.966,17.013z" style=""></path></g></g><g display="none"><g display="inline"><rect x="2" y="2" fill="#e0aaff" width="28" height="28" style=""></rect></g><g display="inline"><g><path fill="#e0aaff" d="M16,31.5C7.453,31.5,0.5,24.547,0.5,16S7.453,0.5,16,0.5S31.5,7.453,31.5,16S24.547,31.5,16,31.5z" style=""></path></g><g><g><path d="M16,1c8.271,0,15,6.729,15,15s-6.729,15-15,15S1,24.271,1,16S7.729,1,16,1 M16,0C7.163,0,0,7.163,0,16s7.163,16,16,16      s16-7.163,16-16S24.837,0,16,0L16,0z" fill="#e0aaff" style=""></path></g></g></g><g display="inline"><g><polygon fill="#e0aaff" points="16,11.314 13.034,14.28 11.582,12.829 14.549,9.863 11.582,6.896 13.034,5.445 16,8.412      18.966,5.445 20.418,6.896 17.451,9.863 20.418,12.829 18.966,14.28    " style=""></polygon></g><g><path d="M13.034,6.153l2.259,2.259L16,9.119l0.707-0.707l2.259-2.259l0.744,0.744l-2.259,2.259l-0.707,0.707l0.707,0.707     l2.259,2.259l-0.744,0.744l-2.259-2.259L16,10.607l-0.707,0.707l-2.259,2.259l-0.744-0.744l2.259-2.259l0.707-0.707l-0.707-0.707     L12.29,6.897L13.034,6.153 M18.966,4.738L16,7.705l-2.966-2.966l-2.158,2.158l2.966,2.966l-2.966,2.966l2.158,2.158L16,12.021     l2.966,2.966l2.158-2.158l-2.966-2.966l2.966-2.966L18.966,4.738L18.966,4.738z" fill="#e0aaff" style=""></path></g></g><g display="inline"><g><polygon fill="#e0aaff" points="16,23.589 13.034,26.555 11.582,25.104 14.549,22.137 11.582,19.171 13.034,17.72 16,20.686      18.966,17.72 20.418,19.171 17.451,22.137 20.418,25.104 18.966,26.555    " style=""></polygon></g><g><path d="M13.034,18.427l2.259,2.259L16,21.393l0.707-0.707l2.259-2.259l0.744,0.744l-2.259,2.259l-0.707,0.707l0.707,0.707     l2.259,2.259l-0.744,0.744l-2.259-2.259L16,22.881l-0.707,0.707l-2.259,2.259l-0.744-0.744l2.259-2.259l0.707-0.707l-0.707-0.707     l-2.259-2.259L13.034,18.427 M18.966,17.013L16,19.979l-2.966-2.966l-2.158,2.158l2.966,2.966l-2.966,2.966l2.158,2.158     L16,24.295l2.966,2.966l2.158-2.158l-2.966-2.966l2.966-2.966L18.966,17.013L18.966,17.013z" fill="#e0aaff" style=""></path></g></g></g><g><g><path d="M0,16.024L15.976,32L32,15.976L16.024,0L0,16.024z M15.989,23.347l-7.336-7.336l14.694-0.022L15.989,23.347z" fill="#e0aaff" style=""></path></g></g><desc>Created with Snap</desc><defs></defs></g><g><g transform="matrix(1.024,0,0,-1.024,0,0)"><path d="M892 221Q905 221 912 208Q920 196 920 177Q920 154 913 141Q906 128 891 118Q832 79 703 -10Q664 -217 602 -336Q540 -455 445 -455Q394 -455 362 -424Q330 -392 330 -341Q330 -294 351 -246Q372 -198 429 -135Q487 -72 592 9L595 28Q516 -5 440 -5Q328 -5 243 38Q158 82 111 162Q64 242 64 348Q64 496 120 609Q176 723 274 785Q373 848 495 848Q612 848 670 793Q729 739 729 649Q729 590 707 554Q686 519 646 519Q619 519 602 532Q586 545 586 568Q586 578 590 602Q596 630 596 646Q596 688 570 711Q545 734 485 734Q412 734 349 692Q287 650 249 566Q211 483 211 366Q211 246 276 180Q342 115 466 115Q535 115 610 146L624 268L522 268Q494 268 479 281Q464 295 464 326Q464 354 479 370Q494 386 519 386L706 386Q728 386 742 371Q757 357 754 330Q751 298 734 185L723 109Q803 169 869 213Q882 221 892 221ZM456 -358Q482 -358 513 -299Q544 -240 571 -109Q495 -174 461 -227Q428 -279 428 -319Q428 -358 456 -358ZM930 -5Q892 -5 876 35Q861 75 861 163Q861 293 898 410Q907 439 927 452Q948 466 985 466Q1005 466 1013 461Q1021 456 1021 442Q1021 426 1006 370Q996 330 990 300Q984 270 980 226Q1013 312 1054 366Q1095 420 1134 443Q1174 466 1207 466Q1272 466 1272 401Q1272 388 1263 338Q1255 298 1255 288Q1255 253 1280 253Q1308 253 1352 297Q1365 310 1379 310Q1392 310 1399 298Q1407 287 1407 268Q1407 231 1387 210Q1359 181 1321 160Q1284 140 1242 140Q1189 140 1161 167Q1134 194 1134 240Q1134 255 1137 270Q1139 290 1139 297Q1139 313 1128 313Q1113 313 1088 279Q1064 246 1040 191Q1016 136 1001 75Q990 28 975 11Q961 -5 930 -5ZM1824 307Q1837 307 1844 294Q1851 281 1851 261Q1851 213 1822 204Q1762 183 1690 180Q1671 96 1615 45Q1559 -5 1488 -5Q1428 -5 1385 24Q1343 53 1321 101Q1299 149 1299 205Q1299 281 1328 340Q1357 400 1408 433Q1459 467 1521 467Q1597 467 1643 414Q1690 362 1698 285Q1745 288 1810 305Q1818 307 1824 307ZM1496 101Q1528 101 1551 127Q1575 153 1583 202Q1552 223 1535 257Q1519 291 1519 329Q1519 345 1522 361L1517 361Q1477 361 1450 322Q1424 284 1424 214Q1424 159 1445 130Q1467 101 1496 101ZM1956 -5Q1858 -5 1803 50Q1749 106 1749 197Q1749 278 1781 339Q1813 400 1864 433Q1915 466 1971 466Q2026 466 2056 433Q2087 401 2087 350Q2087 308 2068 279Q2050 250 2020 250Q2001 250 1989 259Q1978 268 1978 284Q1978 291 1980 300Q1982 309 1983 313Q1988 328 1988 341Q1988 354 1981 361Q1975 368 1963 368Q1940 368 1920 347Q1900 327 1888 292Q1876 257 1876 215Q1876 99 1977 99Q2018 99 2065 126Q2113 154 2159 209Q2171 223 2186 223Q2199 223 2206 211Q2214 199 2214 178Q2214 140 2195 116Q2148 58 2082 26Q2017 -5 1956 -5ZM2579 223Q2592 223 2599 211Q2607 199 2607 178Q2607 138 2588 116Q2551 71 2483 33Q2416 -5 2339 -5Q2234 -5 2176 52Q2118 109 2118 208Q2118 277 2147 336Q2176 396 2227 431Q2279 466 2344 466Q2402 466 2437 431Q2472 397 2472 338Q2472 269 2422 219Q2373 170 2255 141Q2280 95 2350 95Q2395 95 2452 126Q2510 158 2552 209Q2564 223 2579 223ZM2327 368Q2290 368 2264 325Q2239 282 2239 221L2239 219Q2298 233 2332 261Q2366 289 2366 326Q2366 345 2355 356Q2345 368 2327 368ZM2597 -5Q2559 -5 2543 35Q2528 75 2528 163Q2528 293 2565 410Q2574 439 2594 452Q2615 466 2652 466Q2672 466 2680 461Q2688 456 2688 442Q2688 426 2673 370Q2663 330 2657 300Q2651 270 2647 226Q2680 312 2721 366Q2762 420 2801 443Q2841 466 2874 466Q2939 466 2939 401Q2939 388 2930 338Q2922 298 2922 288Q2922 253 2947 253Q2975 253 3019 297Q3032 310 3046 310Q3059 310 3066 298Q3074 287 3074 268Q3074 231 3054 210Q3026 181 2988 160Q2951 140 2909 140Q2856 140 2828 167Q2801 194 2801 240Q2801 255 2804 270Q2806 290 2806 297Q2806 313 2795 313Q2780 313 2755 279Q2731 246 2707 191Q2683 136 2668 75Q2657 28 2642 11Q2628 -5 2597 -5ZM3493 221Q3506 221 3513 208Q3521 196 3521 177Q3521 154 3514 141Q3507 128 3492 118L3300 -11Q3262 -218 3200 -337Q3139 -455 3044 -455Q2993 -455 2961 -424Q2929 -392 2929 -341Q2929 -294 2950 -245Q2972 -196 3030 -133Q3089 -69 3196 13L3199 36Q3206 73 3215 142Q3195 70 3159 32Q3123 -5 3083 -5Q3038 -5 3009 36Q2981 78 2981 140Q2981 215 2991 277Q3001 340 3024 410Q3034 440 3052 453Q3070 466 3109 466Q3131 466 3139 459Q3148 452 3148 438Q3148 430 3137 384Q3127 347 3121 317Q3113 276 3107 238Q3101 201 3101 177Q3101 139 3122 139Q3137 139 3159 169Q3182 199 3207 260Q3233 321 3257 410Q3265 440 3281 453Q3298 466 3331 466Q3354 466 3363 460Q3372 454 3372 440Q3372 415 3346 268L3320 107Q3397 165 3470 213Q3483 221 3493 221ZM3055 -358Q3080 -358 3111 -300Q3142 -242 3173 -107Q3096 -172 3061 -226Q3027 -279 3027 -319Q3027 -336 3033 -347Q3040 -358 3055 -358ZM4500 596Q4500 511 4456 440Q4412 369 4328 324Q4244 279 4128 271L4085 30Q4060 -109 3949 -109Q3888 -109 3836 -73Q3785 -37 3754 37Q3723 111 3723 219Q3723 422 3788 563Q3854 705 3964 775Q4075 846 4208 846Q4302 846 4367 813Q4433 780 4466 723Q4500 667 4500 596ZM4146 374Q4351 400 4351 587Q4351 653 4307 694Q4264 736 4173 736Q4070 736 3993 671Q3917 606 3875 490Q3834 375 3834 227Q3834 165 3846 117Q3859 69 3878 42Q3898 16 3916 16Q3941 16 3954 85L3987 274Q3948 280 3953 279Q3923 284 3914 297Q3905 311 3905 332Q3905 354 3917 367Q3930 380 3952 380Q3962 380 3967 379Q3991 375 4004 374Q4017 452 4041 583Q4047 617 4068 631Q4090 646 4119 646Q4152 646 4166 633Q4181 621 4181 594Q4181 578 4179 568L4146 374ZM4601 -5Q4563 -5 4547 35Q4532 75 4532 163Q4532 293 4569 410Q4578 439 4598 452Q4619 466 4656 466Q4676 466 4684 461Q4692 456 4692 442Q4692 426 4677 370Q4667 330 4661 300Q4655 270 4651 226Q4684 312 4725 366Q4766 420 4805 443Q4845 466 4878 466Q4943 466 4943 401Q4943 388 4934 338Q4926 298 4926 288Q4926 253 4951 253Q4979 253 5023 297Q5036 310 5050 310Q5063 310 5070 298Q5078 287 5078 268Q5078 231 5058 210Q5030 181 4992 160Q4955 140 4913 140Q4860 140 4832 167Q4805 194 4805 240Q4805 255 4808 270Q4810 290 4810 297Q4810 313 4799 313Q4784 313 4759 279Q4735 246 4711 191Q4687 136 4672 75Q4661 28 4646 11Q4632 -5 4601 -5ZM5431 223Q5444 223 5451 211Q5459 199 5459 178Q5459 138 5440 116Q5403 71 5335 33Q5268 -5 5191 -5Q5086 -5 5028 52Q4970 109 4970 208Q4970 277 4999 336Q5028 396 5079 431Q5131 466 5196 466Q5254 466 5289 431Q5324 397 5324 338Q5324 269 5274 219Q5225 170 5107 141Q5132 95 5202 95Q5247 95 5304 126Q5362 158 5404 209Q5416 223 5431 223ZM5179 368Q5142 368 5116 325Q5091 282 5091 221L5091 219Q5150 233 5184 261Q5218 289 5218 326Q5218 345 5207 356Q5197 368 5179 368ZM5946 223Q5959 223 5966 211Q5974 199 5974 178Q5974 138 5955 116Q5914 66 5865 30Q5816 -5 5768 -5Q5692 -5 5652 84Q5610 31 5578 13Q5547 -5 5505 -5Q5444 -5 5404 40Q5365 86 5365 159Q5365 239 5399 307Q5433 376 5492 419Q5552 463 5626 471Q5645 665 5698 802Q5752 940 5839 940Q5882 940 5910 901Q5939 862 5939 783Q5939 671 5884 521Q5829 371 5737 213Q5741 155 5754 130Q5768 105 5789 105Q5816 105 5844 129Q5872 153 5919 209Q5931 223 5946 223ZM5828 842Q5809 842 5790 774Q5771 707 5757 598Q5744 489 5738 370Q5850 614 5850 762Q5850 800 5843 821Q5837 842 5828 842ZM5540 96Q5559 96 5578 111Q5597 127 5626 169Q5616 223 5616 290Q5616 314 5618 368Q5563 351 5526 294Q5490 238 5490 169Q5490 96 5540 96ZM6024 532Q5982 532 5961 551Q5940 571 5940 606Q5940 641 5967 664Q5995 688 6036 688Q6073 688 6096 670Q6119 652 6119 619Q6119 579 6093 555Q6067 532 6024 532ZM6016 -5Q5951 -5 5921 41Q5892 87 5892 163Q5892 208 5903 278Q5915 349 5933 410Q5942 442 5957 454Q5972 466 6005 466Q6056 466 6056 432Q6056 407 6037 316Q6013 206 6013 167Q6013 137 6021 121Q6029 105 6048 105Q6066 105 6093 130Q6120 155 6165 209Q6177 223 6192 223Q6205 223 6212 211Q6220 199 6220 178Q6220 138 6201 116Q6102 -5 6016 -5ZM6330 -5Q6232 -5 6177 50Q6123 106 6123 197Q6123 278 6155 339Q6187 400 6238 433Q6289 466 6345 466Q6400 466 6430 433Q6461 401 6461 350Q6461 308 6442 279Q6424 250 6394 250Q6375 250 6363 259Q6352 268 6352 284Q6352 291 6354 300Q6356 309 6357 313Q6362 328 6362 341Q6362 354 6355 361Q6349 368 6337 368Q6314 368 6294 347Q6274 327 6262 292Q6250 257 6250 215Q6250 99 6351 99Q6392 99 6439 126Q6487 154 6533 209Q6545 223 6560 223Q6573 223 6580 211Q6588 199 6588 178Q6588 140 6569 116Q6522 58 6456 26Q6391 -5 6330 -5ZM6953 223Q6966 223 6973 211Q6981 199 6981 178Q6981 138 6962 116Q6919 63 6868 29Q6817 -5 6751 -5Q6547 -5 6547 282Q6547 326 6550 371L6511 371Q6481 371 6470 382Q6460 393 6460 417Q6460 473 6505 473L6562 473Q6579 583 6614 674Q6649 765 6698 819Q6748 873 6805 873Q6847 873 6871 836Q6895 799 6895 743Q6895 588 6765 473L6877 473Q6893 473 6900 466Q6907 459 6907 440Q6907 371 6794 371L6672 371Q6670 321 6670 293Q6670 189 6694 147Q6719 105 6772 105Q6815 105 6848 131Q6881 157 6926 209Q6938 223 6953 223ZM6778 777Q6763 777 6744 739Q6726 702 6709 635Q6693 569 6682 488Q6741 539 6770 602Q6800 666 6800 718Q6800 777 6778 777ZM7410 307Q7423 307 7430 294Q7437 281 7437 261Q7437 213 7408 204Q7348 183 7276 180Q7257 96 7201 45Q7145 -5 7074 -5Q7014 -5 6971 24Q6929 53 6907 101Q6885 149 6885 205Q6885 281 6914 340Q6943 400 6994 433Q7045 467 7107 467Q7183 467 7229 414Q7276 362 7284 285Q7331 288 7396 305Q7404 307 7410 307ZM7082 101Q7114 101 7137 127Q7161 153 7169 202Q7138 223 7121 257Q7105 291 7105 329Q7105 345 7108 361L7103 361Q7063 361 7036 322Q7010 284 7010 214Q7010 159 7031 130Q7053 101 7082 101ZM7422 -5Q7384 -5 7368 35Q7353 75 7353 163Q7353 293 7390 410Q7399 439 7419 452Q7440 466 7477 466Q7497 466 7505 461Q7513 456 7513 442Q7513 426 7498 370Q7488 330 7482 300Q7476 270 7472 226Q7505 312 7546 366Q7587 420 7626 443Q7666 466 7699 466Q7764 466 7764 401Q7764 388 7755 338Q7747 298 7747 288Q7747 253 7772 253Q7800 253 7844 297Q7857 310 7871 310Q7884 310 7891 298Q7899 287 7899 268Q7899 231 7879 210Q7851 181 7813 160Q7776 140 7734 140Q7681 140 7653 167Q7626 194 7626 240Q7626 255 7629 270Q7631 290 7631 297Q7631 313 7620 313Q7605 313 7580 279Q7556 246 7532 191Q7508 136 7493 75Q7482 28 7467 11Q7453 -5 7422 -5Z" fill="#000000" style=""></path></g></g></g></svg>